<svg width="170" height="73" viewBox="0 0 170 73" fill="none" xmlns="http://www.w3.org/2000/svg">
<path d="M64.7575 47.6311C62.6125 47.6414 60.4675 47.6465 58.3173 47.6517C57.2937 47.6517 55.9974 47.6517 54.9738 47.6568C55.4522 47.4562 56.4295 46.9675 57.2114 45.913C58.3173 44.4265 58.2813 42.8267 58.2556 42.3535C58.2453 41.7516 58.2402 41.1446 58.2299 40.5428C58.2196 39.5398 58.2041 38.5367 58.1939 37.5388H57.5303C56.3832 37.5388 55.3853 37.7908 54.5417 38.3052C54.017 38.6293 53.6775 38.9636 53.6004 39.0408C52.623 40.0387 52.3658 41.2887 52.2064 42.0551C52.1446 42.3638 52.1086 42.6261 52.088 42.801C51.9646 43.3771 51.5839 44.7402 50.3803 45.9079C48.6159 47.6208 46.4092 47.6311 45.9462 47.626V52.7699H52.0829V66.6275C52.0829 66.7047 52.0829 66.7664 52.0932 66.8333C52.1292 68.4228 52.623 69.6882 53.5849 70.6604C54.5931 71.6686 55.91 72.1727 57.5251 72.1727H64.454V67.0185H59.701C58.8317 67.0185 58.3739 66.5812 58.3276 65.7222C58.3173 65.6656 58.3173 65.609 58.3173 65.5473V52.775H65.0404C64.9478 51.0621 64.8552 49.344 64.7626 47.6311H64.7575Z" fill="#00E7F9"/>
<path d="M9.20244 10.8727C10.8999 10.2297 11.5635 9.38097 11.8464 8.70712C12.2271 7.80179 12.0882 6.7833 12.8649 6.21233C13.2095 5.97056 13.5953 5.90369 13.8525 5.89341H18.1117V0.749504H11.6767C10.5296 0.749504 9.53165 1.00156 8.68805 1.51595C8.20452 1.804 7.8856 2.11264 7.74671 2.25152C6.81052 3.19286 6.49675 4.27822 6.37329 4.82862C6.37329 5.25042 6.29099 7.40571 4.52663 9.12378C2.67997 10.919 0.390936 10.8624 0 10.8418V15.9857H6.23955V35.3885H12.4791V15.9857H18.9141V10.8418C15.6838 10.8521 12.4431 10.8624 9.21273 10.8676L9.20244 10.8727Z" fill="#00E7F9"/>
<path d="M44.4373 24.9766C45.3632 24.9972 46.2943 25.0229 47.2253 25.0486C48.1615 25.0744 49.0926 25.1001 50.0185 25.1258C50.1059 24.8377 50.2139 24.3388 50.1419 23.7267C50.0288 22.7853 49.5555 22.1732 49.4629 22.06C48.7119 21.1187 47.6523 20.9284 47.3797 20.8872L44.4476 20.6917C44.4476 20.3471 44.4373 20.0076 44.4373 19.663V19.5961C44.4373 18.7576 44.355 15.1415 41.6082 12.5644C39.1597 10.2651 36.0785 10.1468 33.9438 10.1468C31.8091 10.1468 30.0396 10.4657 28.5735 11.1087C27.1075 11.7516 25.9296 12.5952 25.0603 13.6292C24.1807 14.6734 23.548 15.8153 23.157 17.0756L28.8925 18.9994C29.1239 17.878 29.6229 16.9624 30.3791 16.2526C31.1455 15.5427 32.2926 15.1878 33.8409 15.1878C35.3892 15.1878 36.5877 15.5633 37.3027 16.3091C38.0332 17.0447 38.3933 18.0015 38.3933 19.1486V20.5374H31.6599C29.8132 20.5374 28.1775 20.8255 26.7372 21.3965C25.2969 21.9777 24.1807 22.8368 23.3679 23.9736C22.5655 25.1104 22.1642 26.5249 22.1642 28.2018C22.1642 29.8788 22.5655 31.3088 23.3679 32.4867C24.1807 33.6544 25.2712 34.5494 26.6652 35.1564C28.0489 35.7634 29.6178 36.072 31.3615 36.072C33.1053 36.072 34.4324 35.82 35.4252 35.3262C36.4129 34.8323 37.1433 34.2614 37.6011 33.6287C38.0692 32.9857 38.3572 32.461 38.4961 32.0701H39.4323V32.1164C39.4323 33.104 39.8335 33.9013 40.6206 34.4877C41.4127 35.0844 42.4209 35.3827 43.6452 35.3827H47.8015V30.2285H45.821C45.3941 30.2285 45.0649 30.1257 44.8334 29.9096C44.3396 29.4518 44.4322 28.7985 44.4425 28.7522V24.9715L44.4373 24.9766ZM38.3984 25.6865C38.3984 27.3017 37.848 28.5979 36.7369 29.5701C35.6361 30.5423 34.2061 31.0258 32.4623 31.0258C31.1455 31.0258 30.1373 30.7481 29.448 30.1874C28.7484 29.6267 28.4038 28.9014 28.4038 28.0115C28.4038 27.1216 28.7382 26.4221 29.3914 25.9282C30.055 25.4344 30.9603 25.1927 32.1177 25.1927H38.4035V25.6865H38.3984Z" fill="#00E7F9"/>
<path d="M86.7722 14.3341C86.0263 13.0275 85.0335 12.0553 83.8041 11.4123C82.5645 10.7693 81.191 10.4401 79.6684 10.4401C77.7909 10.4401 76.3352 10.7951 75.3167 11.4843C74.2879 12.1736 73.4958 13.0532 72.9351 14.1077H72.0503C71.4896 13.0172 70.6769 12.1376 69.6224 11.4586C68.5679 10.7848 67.1688 10.4401 65.4198 10.4401C63.8047 10.4401 62.4981 10.7488 61.5053 11.366C60.5177 11.973 59.8078 12.6932 59.3758 13.511H58.491V10.8414H52.3492V35.3881H58.5887V20.8874C58.5887 19.2053 58.9797 17.9091 59.7564 17.0037C60.5331 16.0984 61.6236 15.6406 63.0434 15.6406C64.3036 15.6406 65.2758 15.975 65.9651 16.6591C66.6544 17.333 66.999 18.3515 66.999 19.7043V35.3881H73.2386V20.8874C73.2386 19.2053 73.6295 17.9091 74.4062 17.0037C75.183 16.0984 76.2735 15.6406 77.6932 15.6406C78.9432 15.6406 79.9256 15.975 80.6149 16.6591C81.3042 17.333 81.6488 18.3515 81.6488 19.7043V35.3881H87.8884V19.2516C87.8884 17.2712 87.5129 15.6303 86.7773 14.3289L86.7722 14.3341Z" fill="#00E7F9"/>
<path d="M118.696 23.1304C118.603 21.8032 118.418 20.6767 118.135 19.7405L112.647 21.4483C112.991 22.4102 113.151 23.4441 113.105 24.5655C113.058 25.6869 112.415 26.8648 111.171 28.0942C109.967 29.3082 108.568 29.9615 106.978 30.0541C105.389 30.1467 103.979 29.622 102.74 28.4852L115.373 15.8517L113.871 14.3497C112.096 12.5751 110.193 11.3611 108.146 10.7284C106.109 10.0854 104.077 10.0083 102.061 10.5124C100.044 11.0165 98.1873 12.1173 96.4847 13.8199C94.7563 15.5483 93.599 17.4309 93.028 19.4782C92.457 21.5152 92.4879 23.5676 93.1051 25.6303C93.7224 27.693 94.9467 29.6374 96.7573 31.4583L97.1791 31.8801C99.0001 33.7011 100.95 34.915 103.023 35.522C105.106 36.129 107.169 36.1393 109.221 35.558C111.268 34.9716 113.161 33.8142 114.89 32.0962C116.479 30.5067 117.534 28.9481 118.053 27.4204C118.578 25.8978 118.789 24.4678 118.696 23.1355V23.1304ZM98.3725 21.4483C98.4651 20.1418 99.1081 18.8969 100.296 17.7036C101.433 16.5668 102.668 15.9392 103.985 15.8363C105.312 15.7334 106.515 16.1347 107.606 17.04L99.4939 25.1622C98.6554 23.9945 98.2799 22.7549 98.3725 21.4483Z" fill="#00E7F9"/>
<path d="M93.5425 52.7289C92.4212 50.8411 90.8934 49.4162 88.9387 48.4234C86.9943 47.4358 84.803 46.9369 82.3545 46.9369C79.906 46.9369 77.725 47.4307 75.7703 48.4234C73.826 49.4111 72.2982 50.8411 71.1768 52.7289C70.0452 54.6064 69.4845 56.8646 69.4845 59.5086V60.3007C69.4845 62.9344 70.0452 65.1926 71.1768 67.0804C72.2982 68.9579 73.826 70.3931 75.7703 71.3858C77.7199 72.3735 79.9163 72.8724 82.3545 72.8724C84.7927 72.8724 86.9943 72.3786 88.9387 71.3858C90.8883 70.3982 92.4212 68.9579 93.5425 67.0804C94.6639 65.1926 95.2246 62.9344 95.2246 60.3007V59.5086C95.2246 56.8646 94.6639 54.6064 93.5425 52.7289ZM93.5785 59.7915C86.6137 62.1422 84.7104 64.0455 82.3597 71.0103C80.0089 64.0455 78.1057 62.1422 71.1408 59.7915C78.1057 57.4407 80.0089 55.5375 82.3597 48.5726C84.7104 55.5375 86.6137 57.4407 93.5785 59.7915Z" fill="#00E7F9"/>
<path d="M123.535 52.1581C122.743 50.6252 121.632 49.4215 120.192 48.5471C118.752 47.6675 117.085 47.2302 115.166 47.2302C112.954 47.2302 111.308 47.6212 110.218 48.3979C109.133 49.1746 108.387 49.9925 107.996 50.8464H107.101V47.6366H100.964V72.1833H107.204V59.7093C107.204 57.4306 107.728 55.6559 108.783 54.3854C109.848 53.1149 111.334 52.4822 113.237 52.4822C114.93 52.4822 116.216 52.9503 117.131 53.871C118.037 54.7969 118.484 56.1755 118.484 58.0273V72.1833H124.724V57.5335C124.724 55.4862 124.333 53.6961 123.535 52.1632V52.1581Z" fill="#00E7F9"/>
<path d="M131.452 47.6305V72.1772H137.692V47.6305H131.452Z" fill="#00E7F9"/>
<path d="M162.032 56.8184C162.963 58.1301 163.432 59.4727 163.432 60.8461C163.432 62.2195 162.763 63.5723 161.431 64.9046C160.546 65.7894 159.553 66.3963 158.457 66.7256C157.367 67.0496 156.23 67.0342 155.062 66.6844C153.895 66.3346 152.763 65.6145 151.667 64.5188L151.318 64.169C150.222 63.0734 149.497 61.9366 149.147 60.7689C148.802 59.6064 148.792 58.4696 149.116 57.3842C149.44 56.2834 150.047 55.2907 150.932 54.4059C151.822 53.516 152.727 52.9399 153.653 52.6776C154.569 52.4049 155.474 52.3895 156.359 52.6261C157.249 52.8576 158.087 53.2743 158.879 53.8812L162.233 48.7065C160.721 47.6571 159.09 46.9884 157.336 46.7106C155.592 46.4329 153.828 46.5975 152.053 47.1993C150.284 47.8063 148.566 48.9431 146.909 50.5994C145.232 52.2763 144.065 54.1436 143.396 56.2114C142.727 58.2793 142.666 60.3626 143.206 62.4921C143.736 64.6166 144.95 66.6227 146.837 68.5156L147.326 69.0043C149.219 70.8973 151.22 72.1061 153.355 72.641C155.474 73.176 157.567 73.1143 159.635 72.4507C161.703 71.7872 163.57 70.6143 165.247 68.9374C166.924 67.2605 168.04 65.563 168.642 63.7884C169.249 62.0189 169.414 60.2545 169.131 58.5056C168.858 56.7567 168.246 55.1106 167.315 53.5726L162.032 56.8184Z" fill="#00E7F9"/>
<path d="M139.184 40.826C136.318 41.7931 135.537 42.575 134.57 45.4401C133.602 42.575 132.821 41.7931 129.955 40.826C132.821 39.859 133.602 39.0771 134.57 36.2119C135.537 39.0771 136.318 39.859 139.184 40.826Z" fill="#00E7F9"/>
</svg>
