<svg width="171" height="73" viewBox="0 0 171 73" fill="none" xmlns="http://www.w3.org/2000/svg">
<path d="M65.6141 46.8816C63.4691 46.8919 61.3241 46.8971 59.1739 46.9022C58.1503 46.9022 56.854 46.9022 55.8304 46.9073C56.3088 46.7067 57.2861 46.2181 58.068 45.1636C59.1739 43.677 59.1379 42.0772 59.1122 41.604C59.1019 41.0021 59.0968 40.3952 59.0865 39.7933C59.0762 38.7903 59.0608 37.7872 59.0505 36.7893H58.3869C57.2398 36.7893 56.2419 37.0413 55.3983 37.5557C54.8736 37.8798 54.5341 38.2141 54.457 38.2913C53.4796 39.2892 53.2224 40.5392 53.063 41.3056C53.0013 41.6143 52.9652 41.8766 52.9447 42.0515C52.8212 42.6276 52.4406 43.9907 51.2369 45.1584C49.4725 46.8713 47.2658 46.8816 46.8029 46.8765V52.0204H52.9395V65.878C52.9395 65.9552 52.9395 66.0169 52.9498 66.0838C52.9858 67.6733 53.4796 68.9387 54.4415 69.9109C55.4498 70.9191 56.7666 71.4232 58.3818 71.4232H65.3106V66.269H60.5576C59.6883 66.269 59.2305 65.8317 59.1842 64.9727C59.1739 64.9161 59.1739 64.8596 59.1739 64.7978V52.0255H65.897C65.8044 50.3126 65.7118 48.5945 65.6192 46.8816H65.6141Z" fill="#FC004E"/>
<path d="M10.0591 10.1232C11.7566 9.48021 12.4201 8.63147 12.703 7.95762C13.0837 7.05229 12.9448 6.0338 13.7215 5.46282C14.0662 5.22106 14.452 5.15419 14.7092 5.1439H18.9683V0H12.5333C11.3862 0 10.3883 0.252051 9.54468 0.766441C9.06115 1.0545 8.74223 1.36313 8.60334 1.50202C7.66715 2.44335 7.35338 3.52872 7.22992 4.07911C7.22992 4.50091 7.14762 6.65621 5.38326 8.37427C3.5366 10.1695 1.24756 10.1129 0.856628 10.0923V15.2362H7.09618V34.639H13.3357V15.2362H19.7708V10.0923C16.5404 10.1026 13.2997 10.1129 10.0694 10.1181L10.0591 10.1232Z" fill="#FC004E"/>
<path d="M45.294 24.2271C46.2199 24.2477 47.1509 24.2734 48.082 24.2991C49.0182 24.3249 49.9492 24.3506 50.8751 24.3763C50.9625 24.0882 51.0706 23.5893 50.9986 22.9772C50.8854 22.0358 50.4121 21.4237 50.3196 21.3105C49.5685 20.3692 48.5089 20.1789 48.2363 20.1377L45.3043 19.9423C45.3043 19.5976 45.294 19.2581 45.294 18.9135V18.8466C45.294 18.0081 45.2117 14.392 42.4648 11.8149C40.0163 9.51556 36.9351 9.39725 34.8004 9.39725C32.6657 9.39725 30.8962 9.71618 29.4302 10.3592C27.9642 11.0022 26.7862 11.8458 25.9169 12.8797C25.0373 13.9239 24.4046 15.0658 24.0136 16.3261L29.7491 18.2499C29.9806 17.1285 30.4795 16.2129 31.2357 15.5031C32.0021 14.7932 33.1492 14.4383 34.6975 14.4383C36.2458 14.4383 37.4444 14.8138 38.1594 15.5596C38.8898 16.2952 39.2499 17.252 39.2499 18.3991V19.7879H32.5165C30.6699 19.7879 29.0341 20.076 27.5938 20.647C26.1535 21.2282 25.0373 22.0873 24.2245 23.2241C23.4221 24.3609 23.0209 25.7754 23.0209 27.4523C23.0209 29.1293 23.4221 30.5593 24.2245 31.7372C25.0373 32.9049 26.1278 33.7999 27.5218 34.4069C28.9055 35.0139 30.4744 35.3225 32.2182 35.3225C33.962 35.3225 35.2891 35.0705 36.2819 34.5767C37.2695 34.0828 37.9999 33.5119 38.4577 32.8792C38.9258 32.2362 39.2139 31.7115 39.3528 31.3206H40.2889V31.3669C40.2889 32.3545 40.6902 33.1518 41.4772 33.7382C42.2694 34.3349 43.2776 34.6332 44.5018 34.6332H48.6581V29.479H46.6777C46.2507 29.479 45.9215 29.3762 45.69 29.1601C45.1962 28.7023 45.2888 28.049 45.2991 28.0027V24.222L45.294 24.2271ZM39.255 24.937C39.255 26.5522 38.7046 27.8484 37.5935 28.8206C36.4928 29.7928 35.0627 30.2764 33.319 30.2764C32.0021 30.2764 30.9939 29.9986 30.3046 29.4379C29.6051 28.8772 29.2604 28.1519 29.2604 27.262C29.2604 26.3721 29.5948 25.6726 30.2481 25.1787C30.9116 24.6849 31.8169 24.4432 32.9743 24.4432H39.2602V24.937H39.255Z" fill="#FC004E"/>
<path d="M87.6288 13.5846C86.8829 12.278 85.8902 11.3058 84.6608 10.6628C83.4211 10.0198 82.0477 9.69064 80.5251 9.69064C78.6475 9.69064 77.1918 10.0456 76.1733 10.7348C75.1445 11.4241 74.3524 12.3037 73.7917 13.3582H72.907C72.3463 12.2677 71.5335 11.3881 70.479 10.7091C69.4245 10.0353 68.0254 9.69064 66.2765 9.69064C64.6613 9.69064 63.3547 9.99927 62.362 10.6165C61.3743 11.2235 60.6645 11.9437 60.2324 12.7615H59.3476V10.0919H53.2058V34.6386H59.4454V20.1379C59.4454 18.4558 59.8363 17.1596 60.613 16.2543C61.3898 15.3489 62.4803 14.8911 63.9 14.8911C65.1602 14.8911 66.1324 15.2255 66.8217 15.9096C67.511 16.5835 67.8556 17.602 67.8556 18.9548V34.6386H74.0952V20.1379C74.0952 18.4558 74.4861 17.1596 75.2629 16.2543C76.0396 15.3489 77.1301 14.8911 78.5498 14.8911C79.7998 14.8911 80.7823 15.2255 81.4715 15.9096C82.1608 16.5835 82.5055 17.602 82.5055 18.9548V34.6386H88.745V18.5021C88.745 16.5217 88.3695 14.8808 87.6339 13.5794L87.6288 13.5846Z" fill="#FC004E"/>
<path d="M119.553 22.3809C119.46 21.0537 119.275 19.9272 118.992 18.991L113.503 20.6988C113.848 21.6607 114.008 22.6946 113.961 23.816C113.915 24.9374 113.272 26.1153 112.027 27.3447C110.823 28.5587 109.424 29.212 107.835 29.3046C106.245 29.3972 104.836 28.8725 103.596 27.7357L116.23 15.1023L114.728 13.6002C112.953 11.8256 111.05 10.6116 109.003 9.97893C106.966 9.33594 104.934 9.25878 102.917 9.76288C100.901 10.267 99.044 11.3678 97.3413 13.0704C95.613 14.7988 94.4556 16.6814 93.8846 18.7287C93.3136 20.7657 93.3445 22.8181 93.9618 24.8808C94.579 26.9435 95.8033 28.8879 97.6139 30.7088L98.0357 31.1306C99.8567 32.9516 101.806 34.1655 103.879 34.7725C105.962 35.3795 108.025 35.3898 110.078 34.8085C112.125 34.2221 114.018 33.0648 115.746 31.3467C117.336 29.7572 118.39 28.1986 118.91 26.6709C119.434 25.1483 119.645 23.7183 119.553 22.386V22.3809ZM99.2291 20.6988C99.3217 19.3923 99.9647 18.1474 101.153 16.9541C102.29 15.8173 103.524 15.1897 104.841 15.0868C106.168 14.9839 107.372 15.3852 108.462 16.2905L100.35 24.4127C99.512 23.245 99.1365 22.0054 99.2291 20.6988Z" fill="#FC004E"/>
<path d="M94.3992 51.9794C93.2778 50.0916 91.75 48.6667 89.7954 47.674C87.851 46.6863 85.6597 46.1874 83.2112 46.1874C80.7627 46.1874 78.5817 46.6812 76.627 47.674C74.6826 48.6616 73.1548 50.0916 72.0335 51.9794C70.9018 53.8569 70.3411 56.1151 70.3411 58.7591V59.5512C70.3411 62.1849 70.9018 64.4431 72.0335 66.3309C73.1548 68.2084 74.6826 69.6436 76.627 70.6363C78.5765 71.624 80.773 72.1229 83.2112 72.1229C85.6494 72.1229 87.851 71.6291 89.7954 70.6363C91.7449 69.6487 93.2778 68.2084 94.3992 66.3309C95.5205 64.4431 96.0812 62.1849 96.0812 59.5512V58.7591C96.0812 56.1151 95.5205 53.8569 94.3992 51.9794ZM94.4352 59.042C87.4703 61.3927 85.5671 63.296 83.2163 70.2608C80.8655 63.296 78.9623 61.3927 71.9975 59.042C78.9623 56.6912 80.8655 54.788 83.2163 47.8231C85.5671 54.788 87.4703 56.6912 94.4352 59.042Z" fill="#FC004E"/>
<path d="M124.392 51.4086C123.6 49.8757 122.489 48.672 121.048 47.7976C119.608 46.918 117.942 46.4807 116.023 46.4807C113.811 46.4807 112.165 46.8717 111.074 47.6484C109.989 48.4251 109.243 49.243 108.852 50.0969H107.957V46.8871H101.821V71.4338H108.06V58.9599C108.06 56.6811 108.585 54.9065 109.639 53.6359C110.704 52.3654 112.191 51.7327 114.094 51.7327C115.786 51.7327 117.072 52.2008 117.988 53.1215C118.893 54.0474 119.341 55.426 119.341 57.2778V71.4338H125.58V56.784C125.58 54.7367 125.189 52.9466 124.392 51.4137V51.4086Z" fill="#FC004E"/>
<path d="M132.309 46.881V71.4277H138.548V46.881H132.309Z" fill="#FC004E"/>
<path d="M162.889 56.0689C163.82 57.3806 164.288 58.7232 164.288 60.0966C164.288 61.47 163.619 62.8229 162.287 64.1551C161.402 65.0399 160.41 65.6469 159.314 65.9761C158.223 66.3001 157.087 66.2847 155.919 65.9349C154.751 65.5851 153.62 64.865 152.524 63.7693L152.174 63.4195C151.079 62.3239 150.353 61.1871 150.003 60.0194C149.659 58.8569 149.649 57.7201 149.973 56.6347C150.297 55.5339 150.904 54.5412 151.788 53.6564C152.678 52.7665 153.584 52.1904 154.51 51.9281C155.425 51.6554 156.33 51.64 157.215 51.8766C158.105 52.1081 158.944 52.5248 159.736 53.1317L163.09 47.957C161.577 46.9076 159.947 46.2389 158.193 45.9611C156.449 45.6834 154.684 45.848 152.91 46.4498C151.14 47.0568 149.422 48.1936 147.766 49.8499C146.089 51.5269 144.921 53.3941 144.253 55.4619C143.584 57.5298 143.522 59.6131 144.062 61.7426C144.592 63.8671 145.806 65.8732 147.694 67.7661L148.183 68.2548C150.076 70.1478 152.076 71.3566 154.211 71.8916C156.331 72.4265 158.424 72.3648 160.492 71.7012C162.56 71.0377 164.427 69.8649 166.104 68.1879C167.781 66.511 168.897 64.8135 169.499 63.0389C170.106 61.2694 170.27 59.505 169.988 57.7561C169.715 56.0072 169.103 54.3611 168.172 52.8231L162.889 56.0689Z" fill="#FC004E"/>
<path d="M140.04 40.0765C137.175 41.0436 136.393 41.8255 135.426 44.6906C134.459 41.8255 133.677 41.0436 130.812 40.0765C133.677 39.1095 134.459 38.3276 135.426 35.4624C136.393 38.3276 137.175 39.1095 140.04 40.0765Z" fill="#FC004E"/>
</svg>
